<svg xmlns="http://www.w3.org/2000/svg" version="1.1" xmlns:xlink="http://www.w3.org/1999/xlink" xmlns:svgjs="http://svgjs.com/svgjs" width="1440" height="560" preserveAspectRatio="none" viewBox="0 0 1440 560"><g mask="url(&quot;#SvgjsMask1000&quot;)" fill="none"><rect width="1440" height="560" x="0" y="0" fill="#0e2a47"></rect><path d="M1367.54 370.36a49.29 49.29 0 1 0-97.46-14.82z" stroke="#e73635"></path><path d="M597.75 195.71L613.91 195.71L613.91 199.43L597.75 199.43z" stroke="#e73635"></path><path d="M349.84 127.71L369.75 127.71L369.75 145.25L349.84 145.25z" stroke="#037b0b"></path><path d="M249.77 365.15L251.64 365.15L251.64 367.23L249.77 367.23z" stroke="#d3b714"></path><path d="M1201.63 102.56L1251.61 102.56L1251.61 152.54L1201.63 152.54z" stroke="#d3b714"></path><path d="M1426.72 330.11L1449.96 330.11L1449.96 369.73L1426.72 369.73z" stroke="#d3b714"></path><path d="M895.84 94.08 a42.73 42.73 0 1 0 85.46 0 a42.73 42.73 0 1 0 -85.46 0z" stroke="#e73635"></path><path d="M1173.37 158.04a29.83 29.83 0 1 0-36.54-47.17z" fill="#d3b714"></path><path d="M315.41 333.07L355.29 333.07L355.29 340.6L315.41 340.6z" fill="#037b0b"></path><path d="M1302.31 227.25L1337.57 227.25L1337.57 262.51L1302.31 262.51z" stroke="#d3b714"></path><path d="M997.39 558.77a38.96 38.96 0 1 0-22.03-74.75z" stroke="#037b0b"></path><path d="M1288.42 360.83L1316.16 360.83L1316.16 382.91L1288.42 382.91z" stroke="#e73635"></path><path d="M655.08 94.53L687.06 94.53L687.06 126.51L655.08 126.51z" fill="#d3b714"></path><path d="M1084.53 489.27 a2.78 2.78 0 1 0 5.56 0 a2.78 2.78 0 1 0 -5.56 0z" stroke="#d3b714"></path><path d="M276.08 49.1a50.44 50.44 0 1 0 94.24-36.02z" fill="#e73635"></path><path d="M262.34 525.55L268.64 525.55L268.64 531.85L262.34 531.85z" fill="#037b0b"></path><path d="M1421.51 463.7L1452.64 463.7L1452.64 493.39L1421.51 493.39z" stroke="#e73635"></path><path d="M807.71 9.88L832.7 9.88L832.7 34.87L807.71 34.87z" fill="#037b0b"></path><path d="M1013.59 472.26a23.85 23.85 0 1 0 44.9 16.11z" stroke="#037b0b"></path><path d="M107.61 140.91a0.21 0.21 0 1 0 0.29-0.3z" stroke="#e73635"></path><path d="M278.57 497.83L324.67 497.83L324.67 543.93L278.57 543.93z" fill="#037b0b"></path><path d="M610.5 148.14 a36.79 36.79 0 1 0 73.58 0 a36.79 36.79 0 1 0 -73.58 0z" stroke="#e73635"></path><path d="M972.25 403.31 a36.45 36.45 0 1 0 72.9 0 a36.45 36.45 0 1 0 -72.9 0z" stroke="#d3b714"></path><path d="M763.08 74.82a11.96 11.96 0 1 0-7.25 22.8z" stroke="#e73635"></path><path d="M600.95 163.3a20.36 20.36 0 1 0 14.5 38.05z" fill="#037b0b"></path><path d="M1094.62 441.8L1121.5 441.8L1121.5 451.1L1094.62 451.1z" fill="#e73635"></path><path d="M206.73 375.05a9.71 9.71 0 1 0-10.62-16.26z" stroke="#d3b714"></path><path d="M1076.5 180.5L1100.87 180.5L1100.87 193.83L1076.5 193.83z" fill="#037b0b"></path><path d="M814.54 548.51 a7.52 7.52 0 1 0 15.04 0 a7.52 7.52 0 1 0 -15.04 0z" fill="#037b0b"></path><path d="M814.41 313.55L833.94 313.55L833.94 333.08L814.41 333.08z" stroke="#e73635"></path><path d="M1338.71 48.43a29.81 29.81 0 1 0 25.83 53.74z" stroke="#e73635"></path><path d="M1434.72 518.14a17.01 17.01 0 1 0-33.25-7.18z" fill="#d3b714"></path><path d="M619.1 230.24L619.37 230.24L619.37 266.72L619.1 266.72z" fill="#037b0b"></path></g><defs><mask id="SvgjsMask1000"><rect width="1440" height="560" fill="#ffffff"></rect></mask></defs></svg>